%TF.GenerationSoftware,KiCad,Pcbnew,8.0.4*%
%TF.CreationDate,2024-08-25T13:27:35-07:00*%
%TF.ProjectId,EuroVan interior LED controller,4575726f-5661-46e2-9069-6e746572696f,rev?*%
%TF.SameCoordinates,Original*%
%TF.FileFunction,Copper,L2,Bot*%
%TF.FilePolarity,Positive*%
%FSLAX46Y46*%
G04 Gerber Fmt 4.6, Leading zero omitted, Abs format (unit mm)*
G04 Created by KiCad (PCBNEW 8.0.4) date 2024-08-25 13:27:35*
%MOMM*%
%LPD*%
G01*
G04 APERTURE LIST*
%TA.AperFunction,ComponentPad*%
%ADD10C,1.600000*%
%TD*%
%TA.AperFunction,ComponentPad*%
%ADD11O,1.600000X1.600000*%
%TD*%
%TA.AperFunction,ComponentPad*%
%ADD12C,2.000000*%
%TD*%
%TA.AperFunction,SMDPad,CuDef*%
%ADD13R,8.000000X8.000000*%
%TD*%
%TA.AperFunction,ComponentPad*%
%ADD14R,1.700000X1.700000*%
%TD*%
%TA.AperFunction,ComponentPad*%
%ADD15O,1.700000X1.700000*%
%TD*%
%TA.AperFunction,ComponentPad*%
%ADD16C,2.100000*%
%TD*%
%TA.AperFunction,ComponentPad*%
%ADD17R,2.100000X2.100000*%
%TD*%
%TA.AperFunction,ComponentPad*%
%ADD18C,3.000000*%
%TD*%
%TA.AperFunction,ComponentPad*%
%ADD19O,1.500000X1.050000*%
%TD*%
%TA.AperFunction,ComponentPad*%
%ADD20R,1.500000X1.050000*%
%TD*%
%TA.AperFunction,ComponentPad*%
%ADD21C,1.800000*%
%TD*%
%TA.AperFunction,ComponentPad*%
%ADD22R,1.800000X1.800000*%
%TD*%
%TA.AperFunction,Conductor*%
%ADD23C,0.200000*%
%TD*%
G04 APERTURE END LIST*
D10*
%TO.P,R3,1*%
%TO.N,Net-(Q1-B)*%
X145000000Y-107000000D03*
%TO.P,R3,2*%
%TO.N,GND*%
X145000000Y-104460000D03*
%TD*%
D11*
%TO.P,R1,2*%
%TO.N,Net-(Q1-B)*%
X130000000Y-106000000D03*
D10*
%TO.P,R1,1*%
%TO.N,Fused +12V*%
X119840000Y-106000000D03*
%TD*%
D12*
%TO.P,TP1,1,1*%
%TO.N,Unfused +12V*%
X161500000Y-134500000D03*
X156420000Y-137040000D03*
D13*
X158920000Y-137040000D03*
D12*
X161500000Y-139580000D03*
%TD*%
%TO.P,TP2,1,1*%
%TO.N,GND*%
X161500000Y-102420000D03*
X156420000Y-104960000D03*
D13*
X158920000Y-104960000D03*
D12*
X161500000Y-107500000D03*
%TD*%
D14*
%TO.P,SW1,1,1*%
%TO.N,Red LED+*%
X141500000Y-119475000D03*
D15*
%TO.P,SW1,2,3*%
%TO.N,Fused +12V*%
X141500000Y-122015000D03*
%TO.P,SW1,3,4*%
%TO.N,White LED+*%
X141500000Y-124555000D03*
%TD*%
D16*
%TO.P,J1,4,Pin_4*%
%TO.N,White LED+*%
X159500000Y-124620000D03*
%TO.P,J1,3,Pin_3*%
%TO.N,GND*%
X159500000Y-122080000D03*
%TO.P,J1,2,Pin_2*%
%TO.N,Red LED+*%
X159500000Y-119540000D03*
D17*
%TO.P,J1,1,Pin_1*%
%TO.N,GND*%
X159500000Y-117000000D03*
%TD*%
D18*
%TO.P,F1,1,1*%
%TO.N,Unfused +12V*%
X145000000Y-134000000D03*
%TO.P,F1,2,2*%
%TO.N,Fused +12V*%
X122400000Y-134000000D03*
%TD*%
D10*
%TO.P,R2,1*%
%TO.N,Fused +12V*%
X119840000Y-113000000D03*
D11*
%TO.P,R2,2*%
%TO.N,Net-(D1-A)*%
X130000000Y-113000000D03*
%TD*%
D19*
%TO.P,Q1,3,E*%
%TO.N,GND*%
X136360000Y-104730000D03*
%TO.P,Q1,2,B*%
%TO.N,Net-(Q1-B)*%
X136360000Y-106000000D03*
D20*
%TO.P,Q1,1,C*%
%TO.N,Net-(D1-K)*%
X136360000Y-107270000D03*
%TD*%
D21*
%TO.P,D1,2,A*%
%TO.N,Net-(D1-A)*%
X145000000Y-113040000D03*
D22*
%TO.P,D1,1,K*%
%TO.N,Net-(D1-K)*%
X145000000Y-110500000D03*
%TD*%
D23*
%TO.N,GND*%
X158920000Y-115920000D02*
X158920000Y-104960000D01*
X159500000Y-116500000D02*
X158920000Y-115920000D01*
X159500000Y-117000000D02*
X159500000Y-116500000D01*
X160850000Y-120730000D02*
X159500000Y-122080000D01*
X160850000Y-118350000D02*
X160850000Y-120730000D01*
X159500000Y-117000000D02*
X160850000Y-118350000D01*
X145000000Y-104460000D02*
X158420000Y-104460000D01*
X158420000Y-104460000D02*
X158920000Y-104960000D01*
%TO.N,Unfused +12V*%
X148540000Y-137040000D02*
X158920000Y-137040000D01*
X145500000Y-134000000D02*
X148540000Y-137040000D01*
X145000000Y-134000000D02*
X145500000Y-134000000D01*
%TO.N,GND*%
X159650000Y-105150000D02*
X159250000Y-104750000D01*
X159040000Y-104960000D02*
X159250000Y-104750000D01*
X160250000Y-105750000D02*
X159250000Y-104750000D01*
%TO.N,Unfused +12V*%
X156400000Y-134400000D02*
X159250000Y-137250000D01*
%TO.N,GND*%
X159230000Y-104730000D02*
X159250000Y-104750000D01*
X156770000Y-107230000D02*
X159250000Y-104750000D01*
%TD*%
M02*
