%TF.GenerationSoftware,KiCad,Pcbnew,8.0.4*%
%TF.CreationDate,2024-08-25T13:27:35-07:00*%
%TF.ProjectId,EuroVan interior LED controller,4575726f-5661-46e2-9069-6e746572696f,rev?*%
%TF.SameCoordinates,Original*%
%TF.FileFunction,Copper,L1,Top*%
%TF.FilePolarity,Positive*%
%FSLAX46Y46*%
G04 Gerber Fmt 4.6, Leading zero omitted, Abs format (unit mm)*
G04 Created by KiCad (PCBNEW 8.0.4) date 2024-08-25 13:27:35*
%MOMM*%
%LPD*%
G01*
G04 APERTURE LIST*
%TA.AperFunction,ComponentPad*%
%ADD10C,1.600000*%
%TD*%
%TA.AperFunction,ComponentPad*%
%ADD11O,1.600000X1.600000*%
%TD*%
%TA.AperFunction,ComponentPad*%
%ADD12C,2.000000*%
%TD*%
%TA.AperFunction,ComponentPad*%
%ADD13R,1.700000X1.700000*%
%TD*%
%TA.AperFunction,ComponentPad*%
%ADD14O,1.700000X1.700000*%
%TD*%
%TA.AperFunction,ComponentPad*%
%ADD15C,2.100000*%
%TD*%
%TA.AperFunction,ComponentPad*%
%ADD16R,2.100000X2.100000*%
%TD*%
%TA.AperFunction,ComponentPad*%
%ADD17C,3.000000*%
%TD*%
%TA.AperFunction,ComponentPad*%
%ADD18O,1.500000X1.050000*%
%TD*%
%TA.AperFunction,ComponentPad*%
%ADD19R,1.500000X1.050000*%
%TD*%
%TA.AperFunction,ComponentPad*%
%ADD20C,1.800000*%
%TD*%
%TA.AperFunction,ComponentPad*%
%ADD21R,1.800000X1.800000*%
%TD*%
%TA.AperFunction,Conductor*%
%ADD22C,0.200000*%
%TD*%
G04 APERTURE END LIST*
D10*
%TO.P,R3,1*%
%TO.N,Net-(Q1-B)*%
X145000000Y-107000000D03*
%TO.P,R3,2*%
%TO.N,GND*%
X145000000Y-104460000D03*
%TD*%
D11*
%TO.P,R1,2*%
%TO.N,Net-(Q1-B)*%
X130000000Y-106000000D03*
D10*
%TO.P,R1,1*%
%TO.N,Fused +12V*%
X119840000Y-106000000D03*
%TD*%
D12*
%TO.P,TP1,1,1*%
%TO.N,Unfused +12V*%
X161500000Y-134500000D03*
X156420000Y-137040000D03*
X161500000Y-139580000D03*
%TD*%
%TO.P,TP2,1,1*%
%TO.N,GND*%
X161500000Y-102420000D03*
X156420000Y-104960000D03*
X161500000Y-107500000D03*
%TD*%
D13*
%TO.P,SW1,1,1*%
%TO.N,Red LED+*%
X141500000Y-119475000D03*
D14*
%TO.P,SW1,2,3*%
%TO.N,Fused +12V*%
X141500000Y-122015000D03*
%TO.P,SW1,3,4*%
%TO.N,White LED+*%
X141500000Y-124555000D03*
%TD*%
D15*
%TO.P,J1,4,Pin_4*%
%TO.N,White LED+*%
X159500000Y-124620000D03*
%TO.P,J1,3,Pin_3*%
%TO.N,GND*%
X159500000Y-122080000D03*
%TO.P,J1,2,Pin_2*%
%TO.N,Red LED+*%
X159500000Y-119540000D03*
D16*
%TO.P,J1,1,Pin_1*%
%TO.N,GND*%
X159500000Y-117000000D03*
%TD*%
D17*
%TO.P,F1,1,1*%
%TO.N,Unfused +12V*%
X145000000Y-134000000D03*
%TO.P,F1,2,2*%
%TO.N,Fused +12V*%
X122400000Y-134000000D03*
%TD*%
D10*
%TO.P,R2,1*%
%TO.N,Fused +12V*%
X119840000Y-113000000D03*
D11*
%TO.P,R2,2*%
%TO.N,Net-(D1-A)*%
X130000000Y-113000000D03*
%TD*%
D18*
%TO.P,Q1,3,E*%
%TO.N,GND*%
X136360000Y-104730000D03*
%TO.P,Q1,2,B*%
%TO.N,Net-(Q1-B)*%
X136360000Y-106000000D03*
D19*
%TO.P,Q1,1,C*%
%TO.N,Net-(D1-K)*%
X136360000Y-107270000D03*
%TD*%
D20*
%TO.P,D1,2,A*%
%TO.N,Net-(D1-A)*%
X145000000Y-113040000D03*
D21*
%TO.P,D1,1,K*%
%TO.N,Net-(D1-K)*%
X145000000Y-110500000D03*
%TD*%
D22*
%TO.N,Net-(Q1-B)*%
X144000000Y-106000000D02*
X145000000Y-107000000D01*
X136360000Y-106000000D02*
X144000000Y-106000000D01*
%TO.N,Net-(D1-K)*%
X141770000Y-107270000D02*
X145000000Y-110500000D01*
X136360000Y-107270000D02*
X141770000Y-107270000D01*
%TO.N,GND*%
X144730000Y-104730000D02*
X145000000Y-104460000D01*
X136360000Y-104730000D02*
X144730000Y-104730000D01*
%TO.N,Net-(Q1-B)*%
X130000000Y-106000000D02*
X136360000Y-106000000D01*
%TO.N,Net-(D1-A)*%
X144960000Y-113000000D02*
X145000000Y-113040000D01*
X130000000Y-113000000D02*
X144960000Y-113000000D01*
%TO.N,White LED+*%
X159435000Y-124555000D02*
X159500000Y-124620000D01*
X141500000Y-124555000D02*
X159435000Y-124555000D01*
%TO.N,Red LED+*%
X159435000Y-119475000D02*
X159500000Y-119540000D01*
X141500000Y-119475000D02*
X159435000Y-119475000D01*
%TO.N,Fused +12V*%
X123825000Y-122015000D02*
X141500000Y-122015000D01*
X119840000Y-126000000D02*
X123825000Y-122015000D01*
X119840000Y-126000000D02*
X119840000Y-113000000D01*
X119840000Y-131440000D02*
X119840000Y-126000000D01*
X119840000Y-113000000D02*
X119840000Y-106000000D01*
X122400000Y-134000000D02*
X119840000Y-131440000D01*
%TO.N,White LED+*%
X159595000Y-125555000D02*
X159650000Y-125500000D01*
%TD*%
M02*
